<?xml version="1.0" encoding="UTF-8" standalone="no"?>
<!-- Created with Inkscape (http://www.inkscape.org/) -->

<svg
   xml:space="preserve"
   id="svg1615"
   version="1.1"
   viewBox="0 0 300 300"
   height="300"
   width="300"
   inkscape:export-xdpi="96"
   inkscape:export-ydpi="96"
   inkscape:version="1.2.1 (9c6d41e410, 2022-07-14)"
   sodipodi:docname="logo.svg"
   xmlns:inkscape="http://www.inkscape.org/namespaces/inkscape"
   xmlns:sodipodi="http://sodipodi.sourceforge.net/DTD/sodipodi-0.dtd"
   xmlns="http://www.w3.org/2000/svg"
   xmlns:svg="http://www.w3.org/2000/svg"><sodipodi:namedview
     id="namedview1617"
     pagecolor="#ffffff"
     bordercolor="#000000"
     borderopacity="0.25"
     inkscape:showpageshadow="false"
     inkscape:pageopacity="0.0"
     inkscape:pagecheckerboard="true"
     inkscape:deskcolor="#d1d1d1"
     inkscape:document-units="mm"
     showgrid="false"
     inkscape:zoom="2"
     inkscape:cx="42.75"
     inkscape:cy="201"
     inkscape:window-width="4480"
     inkscape:window-height="2426"
     inkscape:window-x="8948"
     inkscape:window-y="-12"
     inkscape:window-maximized="1"
     inkscape:current-layer="g3752"
     showborder="false"
     shape-rendering="auto"
     showguides="false" /><defs
     id="defs1612" /><g
     inkscape:groupmode="layer"
     id="layer2"
     inkscape:label="Layer 2"
     transform="translate(-1.8339115,-2.0311396)"><g
       id="g3752"
       transform="translate(0.45221135,0.10294965)"><path
         style="mix-blend-mode:normal;fill:#95af40;fill-opacity:1;stroke-width:5.22709"
         d="M 1.3817003,151.92819 V 1.9281899 H 151.3817 h 150 v 150.0000001 150 h -150 H 1.3817003 Z M 143.07641,247.54826 C 101.17917,209.23754 85.08015,179.62878 97.938626,128.19802 107.26396,90.89898 137.15806,67.803427 183.18986,67.786231 c 40.24696,-0.01504 62.41243,21.012052 65.30058,44.653959 2.88814,23.64189 -16.55626,42.49217 -51.8679,57.34077 -21.8644,9.19401 -42.29166,4.42309 -51.9851,-10.25998 -3.92216,-5.94107 -6.36125,-16.62156 -3.36907,-27.46629 3.69693,-13.399 13.2405,-19.68601 22.41786,-22.4454 8.87744,-2.66922 18.21172,-3.27538 26.65325,-7.93802 -8.60987,-2.160919 -15.76355,-4.392736 -27.74829,-4.299084 -31.22358,0.243991 -48.88746,21.731144 -51.42427,37.707224 -3.47869,21.90782 1.79284,46.21083 25.88316,59.21533 44.28497,23.90599 102.99371,-2.80737 120.61856,-54.88327 C 282.39103,66.364531 170.59362,14.613832 99.747184,66.310084 25.321316,120.61823 45.666561,226.83727 154.10808,273.97836 c 13.04473,5.67073 36.40266,11.93135 32.55398,8.77872 -18.82002,-15.4163 -25.66589,-18.82306 -43.58565,-35.20882 z"
         id="path2625"
         sodipodi:nodetypes="cccccccccsssssssscssssssss" /><circle
         style="display:inline;fill:#2b3214;fill-opacity:1;stroke-width:0.275877;stroke-opacity:0.491172;image-rendering:crisp-edges"
         id="path3459"
         cx="177.23621"
         cy="142.23622"
         r="26.736221" /></g></g></svg>
